<svg id="Capa_1" enable-background="new 0 0 512 512" height="512" viewBox="0 0 512 512" width="512" xmlns="http://www.w3.org/2000/svg" xmlns:xlink="http://www.w3.org/1999/xlink"><linearGradient id="SVGID_1_" gradientUnits="userSpaceOnUse" x1="256" x2="256" y1="512" y2="0"><stop offset="0" stop-color="#addcff"/><stop offset=".5028" stop-color="#eaf6ff"/><stop offset="1" stop-color="#eaf6ff"/></linearGradient><linearGradient id="SVGID_2_" gradientUnits="userSpaceOnUse" x1="256" x2="256" y1="398" y2="114"><stop offset="0" stop-color="#00c0ff"/><stop offset="1" stop-color="#5558ff"/></linearGradient><g><g><circle cx="256" cy="256" fill="url(#SVGID_1_)" r="256"/></g><g><g><path d="m247.118 238.25c11.452 0 22.35-2.838 32.119-7.792 11.099-20.546 21.175-46.609 21.175-93.031v-14.552c0-4.906-3.973-8.875-8.882-8.875h-8.882c-41.301 0-79.58 17.888-106.222 47.897-1.182 16.309 2.915 32.278 12.315 45.784 13.323 19.137 35.147 30.569 58.377 30.569zm0-79.875c4.905 0 8.882 3.973 8.882 8.875 0 4.901-3.977 8.875-8.882 8.875s-8.882-3.974-8.882-8.875c-.001-4.902 3.976-8.875 8.882-8.875zm53.294 221.875c-29.388 0-53.294-23.886-53.294-53.25 0-6.076.156-11.648.677-16.979 2.214-25.363 9.542-41.27 18.037-56.202-6.085 1.301-12.305 2.181-18.713 2.181-29.041 0-56.33-14.275-72.967-38.187-7.109-10.215-11.709-21.557-14.03-33.383-17.166 29.249-22.238 60.291-18.463 90.083 8.95 70.402 71.473 123.487 145.429 123.487h13.323c4.91 0 8.883-3.969 8.883-8.875s-3.973-8.875-8.882-8.875zm-176.381-103.501c-3.661-28.896.468-58.138 11.936-84.59.93-2.237 2.226-4.725 3.445-7.159h-25.529c-4.91 0-8.882 3.969-8.882 8.875v79.875c0 61.269 44.662 112.193 103.129 122.303-44.947-23.841-77.486-67.312-84.099-119.304zm265.204 77.049v-17.923c0-24.467-19.916-44.375-44.412-44.375-4.909 0-8.882 3.969-8.882 8.875 0 13.156-5.742 25.533-15.77 33.957-10.201 8.572-23.212 12.004-36.692 9.672-6.201-1.094-11.969-3.672-17.055-7.228 4.282 14.804 17.817 25.724 33.987 25.724 14.694 0 26.647 11.943 26.647 26.625 0 3.127-.641 6.085-1.636 8.875h72.695c4.91 0 8.882-3.969 8.882-8.875.001-13.997-6.696-27.102-17.764-35.327z" fill="url(#SVGID_2_)"/></g></g></g></svg>